<svg width="14" height="16" viewBox="0 0 14 16" fill="none" xmlns="http://www.w3.org/2000/svg">
<circle cx="6.60754" cy="8.3302" r="18.3224" stroke="white" stroke-width="3"/>
<path d="M4.21205 2.38354H2.14722C1.92817 2.38354 1.71809 2.48362 1.5632 2.66174C1.40831 2.83987 1.32129 3.08146 1.32129 3.33337V12.8316C1.32129 13.0835 1.40831 13.3251 1.5632 13.5032C1.71809 13.6813 1.92817 13.7814 2.14722 13.7814H4.21205C4.43111 13.7814 4.64118 13.6813 4.79608 13.5032C4.95097 13.3251 5.03799 13.0835 5.03799 12.8316V3.33337C5.03799 3.08146 4.95097 2.83987 4.79608 2.66174C4.64118 2.48362 4.43111 2.38354 4.21205 2.38354Z" fill="white"/>
<path d="M11.5629 12.8316V3.33337C11.5629 3.08146 11.4759 2.83987 11.321 2.66174C11.1661 2.48362 10.956 2.38354 10.737 2.38354H8.67212C8.45307 2.38354 8.24299 2.48362 8.0881 2.66174C7.93321 2.83987 7.84619 3.08146 7.84619 3.33337V12.8316C7.84619 13.0835 7.93321 13.3251 8.0881 13.5032C8.24299 13.6813 8.45307 13.7814 8.67212 13.7814H10.737C10.956 13.7814 11.1661 13.6813 11.321 13.5032C11.4759 13.3251 11.5629 13.0835 11.5629 12.8316Z" fill="white"/>
</svg>
